<?xml version="1.0" encoding="utf-8"?>
<!-- Svg Vector Icons : http://www.onlinewebfonts.com/icon -->
<!DOCTYPE svg PUBLIC "-//W3C//DTD SVG 1.1//EN" "http://www.w3.org/Graphics/SVG/1.1/DTD/svg11.dtd">
<svg version="1.1" xmlns="http://www.w3.org/2000/svg" xmlns:xlink="http://www.w3.org/1999/xlink" x="0px" y="0px" viewBox="0 0 1000 1000" enable-background="new 0 0 1000 1000" xml:space="preserve">
<metadata> Svg Vector Icons : http://www.onlinewebfonts.com/icon </metadata>
<g><g transform="translate(0.000000,511.000000) scale(0.100000,-0.100000)"><path d="M100,3720.5V2431.1h1289.5h1289.5v1289.5V5010H1389.5H100V3720.5z"/><path d="M3710.5,3720.5V2431.1H5000h1289.5v1289.5V5010H5000H3710.5V3720.5z"/><path d="M7321.1,3720.5V2431.1h1289.5H9900v1289.5V5010H8610.5H7321.1V3720.5z"/><path d="M100,110v-1289.5h1289.5h1289.5V110v1289.5H1389.5H100V110z"/><path d="M3710.5,110v-1289.5H5000h1289.5V110v1289.5H5000H3710.5V110z"/><path d="M7321.1,110v-1289.5h1289.5H9900V110v1289.5H8610.5H7321.1V110z"/><path d="M100-3500.5V-4790h1289.5h1289.5v1289.5v1289.5H1389.5H100V-3500.5z"/><path d="M3710.5-3500.5V-4790H5000h1289.5v1289.5v1289.5H5000H3710.5V-3500.5z"/><path d="M7321.1-3500.5V-4790h1289.5H9900v1289.5v1289.5H8610.5H7321.1V-3500.5z"/></g></g>
</svg>