<svg xmlns="http://www.w3.org/2000/svg" xmlns:xlink="http://www.w3.org/1999/xlink" style="" version="1.1" xml:space="preserve" width="44.66666793823242" height="43"><rect id="backgroundrect" width="100%" height="100%" x="0" y="0" fill="none" stroke="none"/><style type="text/css">
	.st0{display:none;}
	.st1{fill:none;stroke:#303030;stroke-width:0.7;stroke-linecap:round;stroke-linejoin:round;stroke-miterlimit:10;}
	.st2{fill:#303030;}
</style><g class="currentLayer" style=""><title>Layer 1</title><g class="st0" id="Padding__x26__Artboard"/><g id="Icons"><g id="svg_1"><circle class="st1" cx="24" cy="19.150449752807617" r="7.2635297775268555" id="svg_2"/><path class="st1" d="M19.12193,17.23642c0.48483-2.4277,2.8459-4.00272,5.2736-3.51789" id="svg_3"/><path class="st1" d="M11.54175,36.11307c0-3.88968,3.18246-7.07214,7.07214-7.07214h10.77223    c3.88968,0,7.07214,3.18246,7.07214,7.07214" id="svg_4"/><path class="st1" d="M18.98164,18.68699c0,0-0.10733,0.99282,0,1.44898" id="svg_5"/><circle class="st1" cx="24" cy="19.150449752807617" r="7.2635297775268555" id="svg_6"/><path class="st1" d="M19.12193,17.23642c0.48483-2.4277,2.8459-4.00272,5.2736-3.51789" id="svg_7"/><path class="st1" d="M11.54175,36.11307c0-3.88968,3.18246-7.07214,7.07214-7.07214h10.77223    c3.88968,0,7.07214,3.18246,7.07214,7.07214" id="svg_8"/><path class="st1" d="M18.98164,18.68699c0,0-0.10733,0.99282,0,1.44898" id="svg_9"/></g></g><polyline fill="none" stroke="#222222" stroke-width="2" stroke-linejoin="round" stroke-dashoffset="" fill-rule="nonzero" marker-start="" marker-mid="" marker-end="" id="svg_10" points="20.49999687323981,18.083331389145812 19.666663573020173,18.083331389145812 19.666663573020173,18.916664689365447 19.666663573020173,18.916664689365447 19.666663573020173,19.749997989585097 19.666663573020173,19.749997989585097 19.666663573020173,19.749997989585097 19.666663573020173,20.583331289804732 " style="color: rgb(0, 0, 0);"/><polyline fill="none" stroke="#ffffff" stroke-width="2" stroke-linejoin="round" stroke-dashoffset="" fill-rule="nonzero" marker-start="" marker-mid="" marker-end="" id="svg_11" points="20.49999687323981,18.083331389145812 19.666663573020173,18.083331389145812 19.666663573020173,18.083331389145812 19.666663573020173,18.083331389145812 19.666663573020173,17.249998088926162 19.666663573020173,16.416664788706527 19.666663573020173,16.416664788706527 19.666663573020173,16.416664788706527 19.666663573020173,15.583331488486877 19.666663573020173,16.416664788706527 19.666663573020173,16.416664788706527 19.666663573020173,16.416664788706527 19.666663573020173,17.249998088926162 19.666663573020173,17.249998088926162 19.666663573020173,18.083331389145812 20.49999687323981,18.083331389145812 20.49999687323981,18.916664689365447 20.49999687323981,18.916664689365447 19.666663573020173,18.916664689365447 19.666663573020173,19.749997989585097 19.666663573020173,19.749997989585097 19.666663573020173,19.749997989585097 19.666663573020173,20.583331289804732 19.666663573020173,20.583331289804732 19.666663573020173,20.583331289804732 19.666663573020173,20.583331289804732 19.666663573020173,20.583331289804732 19.666663573020173,19.749997989585097 19.666663573020173,19.749997989585097 19.666663573020173,19.749997989585097 19.666663573020173,18.916664689365447 19.666663573020173,18.916664689365447 19.666663573020173,18.916664689365447 19.666663573020173,18.083331389145812 20.49999687323981,18.083331389145812 20.49999687323981,18.083331389145812 21.333330173459444,17.249998088926162 21.333330173459444,17.249998088926162 21.333330173459444,17.249998088926162 21.333330173459444,16.416664788706527 21.333330173459444,16.416664788706527 21.333330173459444,16.416664788706527 22.16666347367908,16.416664788706527 22.16666347367908,15.583331488486877 22.16666347367908,15.583331488486877 22.16666347367908,14.749998188267242 22.16666347367908,14.749998188267242 22.16666347367908,14.749998188267242 22.999996773898744,14.749998188267242 22.999996773898744,14.749998188267242 22.999996773898744,13.916664888047592 23.83333007411838,13.916664888047592 23.83333007411838,13.916664888047592 24.666663374338015,13.916664888047592 24.666663374338015,13.916664888047592 24.666663374338015,13.916664888047592 25.49999667455765,13.916664888047592 24.666663374338015,13.916664888047592 24.666663374338015,13.916664888047592 24.666663374338015,13.916664888047592 23.83333007411838,13.916664888047592 22.999996773898744,13.916664888047592 22.999996773898744,13.916664888047592 22.999996773898744,13.916664888047592 22.16666347367908,13.916664888047592 21.333330173459444,13.916664888047592 21.333330173459444,13.916664888047592 21.333330173459444,14.749998188267242 21.333330173459444,14.749998188267242 21.333330173459444,14.749998188267242 21.333330173459444,15.583331488486877 21.333330173459444,15.583331488486877 21.333330173459444,16.416664788706527 21.333330173459444,16.416664788706527 21.333330173459444,16.416664788706527 21.333330173459444,17.249998088926162 21.333330173459444,17.249998088926162 21.333330173459444,18.083331389145812 21.333330173459444,18.083331389145812 21.333330173459444,18.083331389145812 21.333330173459444,18.916664689365447 21.333330173459444,18.916664689365447 21.333330173459444,19.749997989585097 21.333330173459444,19.749997989585097 " style="color: rgb(0, 0, 0);"/><polyline fill="none" stroke="#ffffff" stroke-width="2" stroke-linejoin="round" stroke-dashoffset="" fill-rule="nonzero" marker-start="" marker-mid="" marker-end="" id="svg_12" points="21.333330173459444,14.749998188267242 21.333330173459444,14.749998188267242 21.333330173459444,14.749998188267242 21.333330173459444,14.749998188267242 21.333330173459444,14.749998188267242 21.333330173459444,14.749998188267242 20.49999687323981,14.749998188267242 20.49999687323981,15.583331488486877 20.49999687323981,15.583331488486877 20.49999687323981,16.416664788706527 " style="color: rgb(0, 0, 0);"/></g></svg>