<?xml version="1.0" encoding="utf-8"?>
<!-- Svg Vector Icons : http://www.onlinewebfonts.com/icon -->
<!DOCTYPE svg PUBLIC "-//W3C//DTD SVG 1.1//EN" "http://www.w3.org/Graphics/SVG/1.1/DTD/svg11.dtd">
<svg version="1.1" xmlns="http://www.w3.org/2000/svg" xmlns:xlink="http://www.w3.org/1999/xlink" x="0px" y="0px" viewBox="0 0 1000 1000" enable-background="new 0 0 1000 1000" xml:space="preserve">
<metadata> Svg Vector Icons : http://www.onlinewebfonts.com/icon </metadata>
<g><path d="M926.8,990H71.2H10v-61.3V73.2V10h61.2h855.6H990v63.2v855.5V990H926.8z M926.8,928.7v-245H683.7v245H926.8z M622.5,928.7v-245h-245v245H622.5z M316.2,928.7v-245h-245v245H316.2z M316.2,73.2h-245v243h245V73.2z M71.2,377.5v246.9h245V377.5H71.2z M622.5,73.2h-245v243h245V73.2z M377.5,377.5v246.9h245V377.5H377.5z M926.8,73.2H683.7v243h243.1V73.2z M683.7,377.5v246.9h243.1V377.5H683.7z"/></g>
</svg>